1.9Hzhigh3min_grf.mot
version=1
nRows=12
nColumns 19
inDegrees=yes
endheader
time	1_ground_force_vx	1_ground_force_vy	1_ground_force_vz	1_ground_force_px	1_ground_force_py	1_ground_force_pz	1_ground_torque_x	1_ground_torque_y	1_ground_torque_z	2_ground_force_vx	2_ground_force_vy	2_ground_force_vz	2_ground_force_px	2_ground_force_py	2_ground_force_pz	2_ground_torque_x	2_ground_torque_y	2_ground_torque_z
            3.751500	          -37.728475	          800.493464	          -66.773088	           -0.269830	            0.006253	           -0.413967	           -0.139568	            2.961243	           -0.247012	          -11.167883	          842.784835	           63.783377	           -0.276633	            0.005331	           -0.654539	            0.025169	           -1.899363	           -0.143747
            3.752000	          -37.543094	          796.345257	          -66.286918	           -0.269737	            0.006254	           -0.414150	           -0.135562	            2.875477	           -0.239352	          -11.243056	          837.628983	           63.577307	           -0.276512	            0.005332	           -0.654761	            0.023688	           -1.764825	           -0.133953
            3.752500	          -37.130107	          792.920713	          -66.394332	           -0.269531	            0.006253	           -0.413910	           -0.127235	            2.717126	           -0.227516	          -11.038856	          833.024453	           63.983153	           -0.276485	            0.005332	           -0.654607	            0.023163	           -1.747981	           -0.134259
            3.753000	          -36.715907	          788.412744	          -66.093685	           -0.269481	            0.006254	           -0.414060	           -0.124757	            2.678942	           -0.224579	          -10.693585	          828.237522	           64.059787	           -0.276312	            0.005333	           -0.654662	            0.021907	           -1.696732	           -0.131233
            3.753500	          -36.394210	          784.086430	          -66.113033	           -0.269385	            0.006254	           -0.414045	           -0.119138	            2.566738	           -0.216424	          -10.585428	          824.187860	           63.669867	           -0.276174	            0.005334	           -0.654969	            0.020261	           -1.577498	           -0.121864
            3.754000	          -35.980012	          780.840019	          -65.715270	           -0.269196	            0.006253	           -0.413795	           -0.119571	            2.594936	           -0.218389	          -10.517914	          818.478982	           63.790262	           -0.276343	            0.005333	           -0.654916	            0.019979	           -1.554683	           -0.121168
            3.754500	          -35.474929	          777.054310	          -65.686902	           -0.269079	            0.006252	           -0.413620	           -0.116477	            2.551358	           -0.215675	          -10.361536	          814.060873	           63.492864	           -0.276248	            0.005334	           -0.654917	            0.017952	           -1.410448	           -0.110008
            3.755000	          -34.740016	          772.366500	          -65.479544	           -0.269012	            0.006252	           -0.413668	           -0.114351	            2.542340	           -0.215534	          -10.340810	          808.351324	           63.754064	           -0.275959	            0.005335	           -0.654980	            0.016895	           -1.320699	           -0.104163
            3.755500	          -34.279989	          768.579528	          -65.130066	           -0.268924	            0.006252	           -0.413521	           -0.110651	            2.480858	           -0.210230	          -10.135527	          803.380521	           63.595460	           -0.276055	            0.005334	           -0.654905	            0.014927	           -1.183162	           -0.093659
            3.756000	          -33.911347	          763.169995	          -64.787318	           -0.268949	            0.006253	           -0.413780	           -0.104532	            2.352485	           -0.199708	           -9.934129	          799.513725	           63.675438	           -0.275888	            0.005336	           -0.655169	            0.014830	           -1.193573	           -0.095059
            3.756500	          -33.268994	          758.303566	          -64.947337	           -0.268865	            0.006253	           -0.413791	           -0.103574	            2.360768	           -0.202196	           -9.585701	          793.807369	           63.373361	           -0.275971	            0.005336	           -0.655164	            0.013548	           -1.121948	           -0.089570
            3.757000	          -33.221375	          754.155726	          -64.552530	           -0.268748	            0.006253	           -0.413789	           -0.098438	            2.234644	           -0.191276	           -9.618552	          789.939727	           63.453439	           -0.275721	            0.005338	           -0.655529	            0.011959	           -0.982152	           -0.078893
